<?xml version="1.0" encoding="UTF-8" standalone="no"?>
<!DOCTYPE svg PUBLIC "-//W3C//DTD SVG 1.1//EN" "http://www.w3.org/Graphics/SVG/1.1/DTD/svg11.dtd">
<svg width="100%" height="100%" viewBox="0 0 1920 1080" version="1.1" xmlns="http://www.w3.org/2000/svg" xmlns:xlink="http://www.w3.org/1999/xlink" xml:space="preserve" xmlns:serif="http://www.serif.com/" style="fill-rule:evenodd;clip-rule:evenodd;stroke-linejoin:round;stroke-miterlimit:2;">
    <g transform="matrix(1.22648,0,0,1.22648,-71.7651,-122.297)">
        <g transform="matrix(3.16667,0,0,3.16667,-408.333,-251.667)">
            <g id="B1" transform="matrix(1,0,0,0.986659,-40,17.1346)">
                <path d="M240,214.73L240,261.69C240,275.488 228.798,286.69 215,286.69C201.202,286.69 190,275.488 190,261.69L190,214.73C190,228.715 201.202,240.068 215,240.068C228.798,240.068 240,228.715 240,214.73Z" style="fill:rgb(79,121,66);"/>
            </g>
            <g id="B2" transform="matrix(1,0,0,0.988857,10,16.7828)">
                <path d="M190,225.732L190,186.69L190.056,186.69C190.019,186.132 190,185.568 190,185C190,171.202 201.202,160 215,160C228.798,160 240,171.202 240,185C240,185.568 239.981,186.132 239.944,186.69L240,186.69L240,225.732C240,211.779 228.798,200.451 215,200.451C201.202,200.451 190,211.779 190,225.732ZM240,245.958L240,286.69C240,300.488 228.798,311.69 215,311.69C201.202,311.69 190,300.488 190,286.69L190,245.958C190,259.911 201.202,271.239 215,271.239C228.798,271.239 240,259.911 240,245.958Z" style="fill:rgb(79,121,66);"/>
            </g>
            <g id="B3" transform="matrix(1,0,0,0.986659,60,17.1346)">
                <path d="M240,214.73L240,261.69C240,275.488 228.798,286.69 215,286.69C201.202,286.69 190,275.488 190,261.69L190,214.73C190,228.715 201.202,240.068 215,240.068C228.798,240.068 240,228.715 240,214.73Z" style="fill:rgb(79,121,66);"/>
            </g>
            <g>
                <g id="B4" transform="matrix(1,0,0,0.988857,110,16.7828)">
                    <path d="M190,237.531L190,186.69L190.056,186.69C190.019,186.132 190,185.568 190,185C190,171.202 201.202,160 215,160C228.798,160 240,171.202 240,185C240,185.568 239.981,186.132 239.944,186.69L240,186.69L240,237.531C240,223.578 228.798,212.249 215,212.249C201.202,212.249 190,223.578 190,237.531Z" style="fill:rgb(79,121,66);"/>
                </g>
                <g id="T5" transform="matrix(0.5,0,0,0.833333,280,8.33333)">
                    <ellipse cx="90" cy="350" rx="50" ry="30" style="fill:rgb(79,121,66);"/>
                </g>
            </g>
        </g>
        <g transform="matrix(1,0,0,1,-287.156,49.7852)">
            <g transform="matrix(400,0,0,400,1938.52,620)">
            </g>
            <text x="972.117px" y="620px" style="font-family:'OCRAExtended', 'OCR A Extended', monospace;font-size:400px;fill:rgb(79,121,66);">SMAL</text>
        </g>
    </g>
</svg>
