<?xml version="1.0" encoding="UTF-8" standalone="no"?>
<!DOCTYPE svg PUBLIC "-//W3C//DTD SVG 1.1//EN"
 "http://www.w3.org/Graphics/SVG/1.1/DTD/svg11.dtd">
<!-- Generated by graphviz version 2.43.0 (0)
 -->
<!-- Title: Complex Pages: 1 -->
<svg width="1783pt" height="1092pt"
 viewBox="0.00 0.00 1782.67 1092.00" xmlns="http://www.w3.org/2000/svg" xmlns:xlink="http://www.w3.org/1999/xlink">
<g id="graph0" class="graph" transform="scale(1 1) rotate(0) translate(4 1088)">
<title>Complex</title>
<polygon fill="white" stroke="transparent" points="-4,4 -4,-1088 1778.67,-1088 1778.67,4 -4,4"/>
<text text-anchor="middle" x="887.34" y="-1064" font-family="Arial Bold" font-size="20.00">Complex</text>
<g id="clust1" class="cluster">
<title>cluster_transfer</title>
<path fill="#f8f8f8" stroke="#dddddd" d="M273.69,-88C273.69,-88 1274.98,-88 1274.98,-88 1280.98,-88 1286.98,-94 1286.98,-100 1286.98,-100 1286.98,-268 1286.98,-268 1286.98,-274 1280.98,-280 1274.98,-280 1274.98,-280 273.69,-280 273.69,-280 267.69,-280 261.69,-274 261.69,-268 261.69,-268 261.69,-100 261.69,-100 261.69,-94 267.69,-88 273.69,-88"/>
<text text-anchor="middle" x="774.33" y="-260" font-family="Arial Bold" font-size="20.00">transfer</text>
</g>
<g id="clust2" class="cluster">
<title>cluster_verify</title>
<path fill="#f8f8f8" stroke="#dddddd" d="M20,-884C20,-884 787.68,-884 787.68,-884 793.68,-884 799.68,-890 799.68,-896 799.68,-896 799.68,-1034 799.68,-1034 799.68,-1040 793.68,-1046 787.68,-1046 787.68,-1046 20,-1046 20,-1046 14,-1046 8,-1040 8,-1034 8,-1034 8,-896 8,-896 8,-890 14,-884 20,-884"/>
<text text-anchor="middle" x="403.84" y="-1026" font-family="Arial Bold" font-size="20.00">verify</text>
</g>
<!-- idle -->
<g id="node1" class="node">
<title>idle</title>
<ellipse fill="#f8f8f8" stroke="black" cx="1746.72" cy="-601" rx="27.9" ry="27.9"/>
<text text-anchor="middle" x="1746.72" y="-597.3" font-family="Times,serif" font-size="14.00">idle</text>
</g>
<!-- transfer_init -->
<g id="node7" class="node">
<title>transfer_init</title>
<ellipse fill="#f8f8f8" stroke="black" cx="337.93" cy="-174" rx="68.49" ry="68.49"/>
<text text-anchor="middle" x="337.93" y="-170.3" font-family="Times,serif" font-size="14.00">transfer_init</text>
</g>
<!-- idle&#45;&gt;transfer_init -->
<g id="edge9" class="edge">
<title>idle&#45;&gt;transfer_init</title>
<path fill="none" stroke="#555555" d="M1734.52,-575.77C1687.28,-469.41 1506.78,-63 1506.78,-63 722.18,-63 722.18,-63 722.18,-63 722.18,-63 525.35,-120.01 413.8,-152.31"/>
<polygon fill="#555555" stroke="#555555" points="412.58,-149.03 403.95,-155.17 414.52,-155.75 412.58,-149.03"/>
<text text-anchor="middle" x="1215.48" y="-77" font-family="Times,serif" font-size="10.00">on: evt_install_start</text>
<text text-anchor="middle" x="1215.48" y="-66" font-family="Times,serif" font-size="10.00">on_entry: evt_chunk_received</text>
</g>
<!-- complete -->
<g id="node2" class="node">
<title>complete</title>
<path fill="none" stroke="black" d="M1244.48,-627C1244.48,-627 1186.48,-627 1186.48,-627 1180.48,-627 1174.48,-621 1174.48,-615 1174.48,-615 1174.48,-603 1174.48,-603 1174.48,-597 1180.48,-591 1186.48,-591 1186.48,-591 1244.48,-591 1244.48,-591 1250.48,-591 1256.48,-597 1256.48,-603 1256.48,-603 1256.48,-615 1256.48,-615 1256.48,-621 1250.48,-627 1244.48,-627"/>
<text text-anchor="middle" x="1215.48" y="-605.3" font-family="Times,serif" font-size="14.00">complete</text>
</g>
<!-- complete&#45;&gt;idle -->
<g id="edge1" class="edge">
<title>complete&#45;&gt;idle</title>
<path fill="none" stroke="#555555" d="M1256.59,-605.17C1322.57,-598.86 1446.78,-587 1446.78,-587 1446.78,-587 1564.78,-587 1564.78,-587 1564.78,-587 1655.64,-594.03 1708.59,-598.13"/>
<polygon fill="#555555" stroke="#555555" points="1708.39,-601.62 1718.63,-598.9 1708.93,-594.64 1708.39,-601.62"/>
<text text-anchor="middle" x="1505.78" y="-590" font-family="Times,serif" font-size="10.00">on: evt_install_start</text>
</g>
<!-- aborted -->
<g id="node3" class="node">
<title>aborted</title>
<path fill="none" stroke="black" d="M1529.78,-661C1529.78,-661 1481.78,-661 1481.78,-661 1475.78,-661 1469.78,-655 1469.78,-649 1469.78,-649 1469.78,-637 1469.78,-637 1469.78,-631 1475.78,-625 1481.78,-625 1481.78,-625 1529.78,-625 1529.78,-625 1535.78,-625 1541.78,-631 1541.78,-637 1541.78,-637 1541.78,-649 1541.78,-649 1541.78,-655 1535.78,-661 1529.78,-661"/>
<text text-anchor="middle" x="1505.78" y="-639.3" font-family="Times,serif" font-size="14.00">aborted</text>
</g>
<!-- aborted&#45;&gt;idle -->
<g id="edge2" class="edge">
<title>aborted&#45;&gt;idle</title>
<path fill="none" stroke="#555555" d="M1541.78,-636.85C1586.51,-628.98 1663.6,-615.43 1709.1,-607.44"/>
<polygon fill="#555555" stroke="#555555" points="1709.89,-610.85 1719.13,-605.67 1708.68,-603.96 1709.89,-610.85"/>
<text text-anchor="middle" x="1641.78" y="-629" font-family="Times,serif" font-size="10.00">on: evt_install_start</text>
</g>
<!-- error -->
<g id="node4" class="node">
<title>error</title>
<polygon fill="#f8f8f8" stroke="black" points="1255.03,-769 1235.25,-787 1195.7,-787 1175.92,-769 1195.7,-751 1235.25,-751 1255.03,-769"/>
<text text-anchor="middle" x="1215.48" y="-765.3" font-family="Times,serif" font-size="14.00">error</text>
</g>
<!-- error&#45;&gt;idle -->
<g id="edge3" class="edge">
<title>error&#45;&gt;idle</title>
<path fill="none" stroke="#555555" d="M1248.69,-762.82C1306.01,-751.82 1419.78,-730 1419.78,-730 1419.78,-730 1564.78,-688 1564.78,-688 1564.78,-688 1691.78,-650 1691.78,-650 1691.78,-650 1704.55,-638.4 1717.66,-626.49"/>
<polygon fill="#555555" stroke="#555555" points="1720.28,-628.84 1725.33,-619.52 1715.57,-623.66 1720.28,-628.84"/>
<text text-anchor="middle" x="1505.78" y="-736" font-family="Times,serif" font-size="10.00">on: evt_retry</text>
<text text-anchor="middle" x="1505.78" y="-725" font-family="Times,serif" font-size="10.00">do: [action_clear_error]</text>
</g>
<!-- error&#45;&gt;aborted -->
<g id="edge8" class="edge">
<title>error&#45;&gt;aborted</title>
<path fill="none" stroke="#555555" d="M1242.57,-757.6C1291.91,-736.03 1399.38,-689.06 1460.3,-662.44"/>
<polygon fill="#555555" stroke="#555555" points="1461.9,-665.56 1469.67,-658.34 1459.1,-659.14 1461.9,-665.56"/>
<text text-anchor="middle" x="1386.28" y="-709" font-family="Times,serif" font-size="10.00">on: evt_abort</text>
</g>
<!-- installing -->
<g id="node5" class="node">
<title>installing</title>
<path fill="none" stroke="black" d="M752.68,-678C752.68,-678 693.68,-678 693.68,-678 687.68,-678 681.68,-672 681.68,-666 681.68,-666 681.68,-654 681.68,-654 681.68,-648 687.68,-642 693.68,-642 693.68,-642 752.68,-642 752.68,-642 758.68,-642 764.68,-648 764.68,-654 764.68,-654 764.68,-666 764.68,-666 764.68,-672 758.68,-678 752.68,-678"/>
<text text-anchor="middle" x="723.18" y="-656.3" font-family="Times,serif" font-size="14.00">installing</text>
</g>
<!-- installing&#45;&gt;complete -->
<g id="edge4" class="edge">
<title>installing&#45;&gt;complete</title>
<path fill="none" stroke="#555555" d="M764.7,-650.24C795.35,-642.87 832.18,-634 832.18,-634 832.18,-634 1060.2,-619.09 1164.04,-612.3"/>
<polygon fill="#555555" stroke="#555555" points="1164.54,-615.77 1174.29,-611.63 1164.08,-608.79 1164.54,-615.77"/>
<text text-anchor="middle" x="955.18" y="-648" font-family="Times,serif" font-size="10.00">on: evt_install_done</text>
<text text-anchor="middle" x="955.18" y="-637" font-family="Times,serif" font-size="10.00">do: [action_notify_host, action_schedule_reboot]</text>
</g>
<!-- installing&#45;&gt;error -->
<g id="edge5" class="edge">
<title>installing&#45;&gt;error</title>
<path fill="none" stroke="#555555" d="M764.79,-666.31C857.77,-680.76 1078.18,-715 1078.18,-715 1078.18,-715 1137.87,-738.65 1178.25,-754.65"/>
<polygon fill="#555555" stroke="#555555" points="1176.96,-757.9 1187.55,-758.33 1179.54,-751.39 1176.96,-757.9"/>
<text text-anchor="middle" x="955.18" y="-729" font-family="Times,serif" font-size="10.00">on: evt_install_failed</text>
<text text-anchor="middle" x="955.18" y="-718" font-family="Times,serif" font-size="10.00">do: [action_set_error_flash_write]</text>
</g>
<!-- abort_decision -->
<g id="node6" class="node">
<title>abort_decision</title>
<polygon fill="#f8f8f8" stroke="black" points="1215.48,-503 1105.38,-485 1215.48,-467 1325.57,-485 1215.48,-503"/>
<text text-anchor="middle" x="1215.48" y="-481.3" font-family="Times,serif" font-size="14.00">abort_decision</text>
</g>
<!-- installing&#45;&gt;abort_decision -->
<g id="edge6" class="edge">
<title>installing&#45;&gt;abort_decision</title>
<path fill="none" stroke="#555555" d="M753.69,-641.97C785.67,-622.42 832.18,-594 832.18,-594 832.18,-594 1061.22,-528.7 1164.74,-499.18"/>
<polygon fill="#555555" stroke="#555555" points="1165.99,-502.46 1174.65,-496.36 1164.07,-495.73 1165.99,-502.46"/>
<text text-anchor="middle" x="955.18" y="-597" font-family="Times,serif" font-size="10.00">on: evt_abort</text>
</g>
<!-- abort_decision&#45;&gt;aborted -->
<g id="edge7" class="edge">
<title>abort_decision&#45;&gt;aborted</title>
<path fill="none" stroke="#555555" d="M1241.56,-498.75C1291.07,-525.88 1401.86,-586.6 1462.73,-619.96"/>
<polygon fill="#555555" stroke="#555555" points="1461.24,-623.13 1471.69,-624.87 1464.6,-616.99 1461.24,-623.13"/>
<text text-anchor="middle" x="1386.28" y="-599" font-family="Times,serif" font-size="10.00">on: evt_abort</text>
</g>
<!-- abort_decision&#45;&gt;transfer_init -->
<g id="edge10" class="edge">
<title>abort_decision&#45;&gt;transfer_init</title>
<path fill="none" stroke="#555555" d="M1142.12,-478.94C1031.29,-469.67 832.18,-453 832.18,-453 832.18,-453 433.18,-234 433.18,-234 433.18,-234 420.56,-225.97 404.56,-215.78"/>
<polygon fill="#555555" stroke="#555555" points="406.25,-212.7 395.93,-210.29 402.49,-218.61 406.25,-212.7"/>
<text text-anchor="middle" x="723.18" y="-450" font-family="Times,serif" font-size="10.00">on: evt_retry</text>
<text text-anchor="middle" x="723.18" y="-439" font-family="Times,serif" font-size="10.00">do: [action_reset_transfer_state]</text>
</g>
<!-- awaiting_chunk -->
<g id="node8" class="node">
<title>awaiting_chunk</title>
<path fill="none" stroke="black" d="M775.18,-242C775.18,-242 671.18,-242 671.18,-242 665.18,-242 659.18,-236 659.18,-230 659.18,-230 659.18,-218 659.18,-218 659.18,-212 665.18,-206 671.18,-206 671.18,-206 775.18,-206 775.18,-206 781.18,-206 787.18,-212 787.18,-218 787.18,-218 787.18,-230 787.18,-230 787.18,-236 781.18,-242 775.18,-242"/>
<text text-anchor="middle" x="723.18" y="-220.3" font-family="Times,serif" font-size="14.00">awaiting_chunk</text>
</g>
<!-- transfer_init&#45;&gt;awaiting_chunk -->
<g id="edge15" class="edge">
<title>transfer_init&#45;&gt;awaiting_chunk</title>
<path fill="none" stroke="#555555" d="M405.69,-182.71C473.65,-191.58 578.74,-205.29 648.95,-214.45"/>
<polygon fill="#555555" stroke="#555555" points="648.68,-217.94 659.05,-215.76 649.58,-211 648.68,-217.94"/>
<text text-anchor="middle" x="523.68" y="-213" font-family="Times,serif" font-size="10.00">on: evt_chunk_received</text>
</g>
<!-- awaiting_chunk&#45;&gt;error -->
<g id="edge12" class="edge">
<title>awaiting_chunk&#45;&gt;error</title>
<path fill="none" stroke="#555555" d="M736.57,-242.24C764.93,-284 832.18,-383 832.18,-383 832.18,-383 1078.18,-502 1078.18,-502 1078.18,-502 1105.18,-654 1105.18,-654 1105.18,-654 1158.04,-709.62 1190.24,-743.5"/>
<polygon fill="#555555" stroke="#555555" points="1187.73,-745.94 1197.16,-750.78 1192.81,-741.12 1187.73,-745.94"/>
<text text-anchor="middle" x="955.18" y="-505" font-family="Times,serif" font-size="10.00">on: evt_connection_lost</text>
</g>
<!-- awaiting_chunk&#45;&gt;abort_decision -->
<g id="edge11" class="edge">
<title>awaiting_chunk&#45;&gt;abort_decision</title>
<path fill="none" stroke="#555555" d="M787.47,-237.59C889.29,-259.45 1078.18,-300 1078.18,-300 1078.18,-300 1159.75,-410.72 1196.68,-460.85"/>
<polygon fill="#555555" stroke="#555555" points="1193.87,-462.93 1202.62,-468.91 1199.51,-458.78 1193.87,-462.93"/>
<text text-anchor="middle" x="955.18" y="-303" font-family="Times,serif" font-size="10.00">on: evt_timeout</text>
</g>
<!-- awaiting_chunk&#45;&gt;abort_decision -->
<g id="edge13" class="edge">
<title>awaiting_chunk&#45;&gt;abort_decision</title>
<path fill="none" stroke="#555555" d="M746.03,-242.01C777.59,-268.02 832.18,-313 832.18,-313 832.18,-313 1078.18,-370 1078.18,-370 1078.18,-370 1149.24,-429.96 1188.74,-463.29"/>
<polygon fill="#555555" stroke="#555555" points="1186.76,-466.19 1196.66,-469.97 1191.27,-460.84 1186.76,-466.19"/>
<text text-anchor="middle" x="955.18" y="-373" font-family="Times,serif" font-size="10.00">on: evt_abort</text>
</g>
<!-- chunk_received -->
<g id="node9" class="node">
<title>chunk_received</title>
<path fill="none" stroke="black" d="M1266.98,-175C1266.98,-175 1163.98,-175 1163.98,-175 1157.98,-175 1151.98,-169 1151.98,-163 1151.98,-163 1151.98,-151 1151.98,-151 1151.98,-145 1157.98,-139 1163.98,-139 1163.98,-139 1266.98,-139 1266.98,-139 1272.98,-139 1278.98,-145 1278.98,-151 1278.98,-151 1278.98,-163 1278.98,-163 1278.98,-169 1272.98,-175 1266.98,-175"/>
<text text-anchor="middle" x="1215.48" y="-153.3" font-family="Times,serif" font-size="14.00">chunk_received</text>
</g>
<!-- awaiting_chunk&#45;&gt;chunk_received -->
<g id="edge16" class="edge">
<title>awaiting_chunk&#45;&gt;chunk_received</title>
<path fill="none" stroke="#555555" d="M748.15,-205.8C779.96,-181.64 832.18,-142 832.18,-142 832.18,-142 1078.18,-142 1078.18,-142 1078.18,-142 1109.31,-145.43 1141.81,-149"/>
<polygon fill="#555555" stroke="#555555" points="1141.59,-152.5 1151.91,-150.11 1142.35,-145.54 1141.59,-152.5"/>
<text text-anchor="middle" x="955.18" y="-156" font-family="Times,serif" font-size="10.00">on: evt_chunk_received</text>
<text text-anchor="middle" x="955.18" y="-145" font-family="Times,serif" font-size="10.00">do: [action_accumulate_crc, action_store_chunk]</text>
</g>
<!-- chunk_received&#45;&gt;awaiting_chunk -->
<g id="edge17" class="edge">
<title>chunk_received&#45;&gt;awaiting_chunk</title>
<path fill="none" stroke="#555555" d="M1151.62,-165.59C1060.83,-178 893.36,-200.88 797.21,-214.02"/>
<polygon fill="#555555" stroke="#555555" points="796.71,-210.56 787.27,-215.38 797.65,-217.49 796.71,-210.56"/>
<text text-anchor="middle" x="955.18" y="-211" font-family="Times,serif" font-size="10.00">on: evt_chunk_received</text>
</g>
<!-- verify_init -->
<g id="node10" class="node">
<title>verify_init</title>
<ellipse fill="#f8f8f8" stroke="black" cx="73.84" cy="-950" rx="57.69" ry="57.69"/>
<text text-anchor="middle" x="73.84" y="-946.3" font-family="Times,serif" font-size="14.00">verify_init</text>
</g>
<!-- chunk_received&#45;&gt;verify_init -->
<g id="edge14" class="edge">
<title>chunk_received&#45;&gt;verify_init</title>
<path fill="none" stroke="#555555" d="M1151.93,-140.64C998.18,-100.43 614.18,0 614.18,0 614.18,0 433.18,0 433.18,0 433.18,0 261.69,-79 261.69,-79 261.69,-79 132.75,-680.05 89.1,-883.56"/>
<polygon fill="#555555" stroke="#555555" points="85.64,-883.01 86.96,-893.52 92.48,-884.48 85.64,-883.01"/>
<text text-anchor="middle" x="523.68" y="-14" font-family="Times,serif" font-size="10.00">on: evt_transfer_complete</text>
<text text-anchor="middle" x="523.68" y="-3" font-family="Times,serif" font-size="10.00">on_entry: evt_crc_pass</text>
</g>
<!-- verify_init&#45;&gt;error -->
<g id="edge18" class="edge">
<title>verify_init&#45;&gt;error</title>
<path fill="none" stroke="#555555" d="M126.57,-926.18C225.8,-880.49 433.18,-785 433.18,-785 433.18,-785 996.24,-773.47 1166.37,-769.99"/>
<polygon fill="#555555" stroke="#555555" points="1166.6,-773.48 1176.53,-769.78 1166.46,-766.48 1166.6,-773.48"/>
<text text-anchor="middle" x="523.68" y="-788" font-family="Times,serif" font-size="10.00">on: evt_crc_fail</text>
</g>
<!-- crc_check -->
<g id="node11" class="node">
<title>crc_check</title>
<path fill="none" stroke="black" d="M368.93,-968C368.93,-968 306.93,-968 306.93,-968 300.93,-968 294.93,-962 294.93,-956 294.93,-956 294.93,-944 294.93,-944 294.93,-938 300.93,-932 306.93,-932 306.93,-932 368.93,-932 368.93,-932 374.93,-932 380.93,-938 380.93,-944 380.93,-944 380.93,-956 380.93,-956 380.93,-962 374.93,-968 368.93,-968"/>
<text text-anchor="middle" x="337.93" y="-946.3" font-family="Times,serif" font-size="14.00">crc_check</text>
</g>
<!-- verify_init&#45;&gt;crc_check -->
<g id="edge22" class="edge">
<title>verify_init&#45;&gt;crc_check</title>
<path fill="none" stroke="#555555" d="M131.71,-950C177.15,-950 240.33,-950 284.54,-950"/>
<polygon fill="#555555" stroke="#555555" points="284.79,-953.5 294.79,-950 284.79,-946.5 284.79,-953.5"/>
<text text-anchor="middle" x="200.69" y="-953" font-family="Times,serif" font-size="10.00">on: evt_crc_pass</text>
</g>
<!-- crc_check&#45;&gt;error -->
<g id="edge19" class="edge">
<title>crc_check&#45;&gt;error</title>
<path fill="none" stroke="#555555" d="M381.06,-942.53C537.8,-914.76 1078.18,-819 1078.18,-819 1078.18,-819 1136.97,-797.43 1177.33,-782.63"/>
<polygon fill="#555555" stroke="#555555" points="1178.71,-785.85 1186.89,-779.12 1176.3,-779.28 1178.71,-785.85"/>
<text text-anchor="middle" x="723.18" y="-909" font-family="Times,serif" font-size="10.00">on: evt_crc_fail</text>
<text text-anchor="middle" x="723.18" y="-898" font-family="Times,serif" font-size="10.00">do: [action_set_error_crc]</text>
</g>
<!-- image_validation -->
<g id="node12" class="node">
<title>image_validation</title>
<path fill="none" stroke="black" d="M779.68,-1008C779.68,-1008 666.68,-1008 666.68,-1008 660.68,-1008 654.68,-1002 654.68,-996 654.68,-996 654.68,-984 654.68,-984 654.68,-978 660.68,-972 666.68,-972 666.68,-972 779.68,-972 779.68,-972 785.68,-972 791.68,-978 791.68,-984 791.68,-984 791.68,-996 791.68,-996 791.68,-1002 785.68,-1008 779.68,-1008"/>
<text text-anchor="middle" x="723.18" y="-986.3" font-family="Times,serif" font-size="14.00">image_validation</text>
</g>
<!-- crc_check&#45;&gt;image_validation -->
<g id="edge23" class="edge">
<title>crc_check&#45;&gt;image_validation</title>
<path fill="none" stroke="#555555" d="M381.04,-954.4C444.35,-961 565.08,-973.6 644.61,-981.9"/>
<polygon fill="#555555" stroke="#555555" points="644.27,-985.39 654.58,-982.94 645,-978.43 644.27,-985.39"/>
<text text-anchor="middle" x="523.68" y="-992" font-family="Times,serif" font-size="10.00">on: evt_crc_pass</text>
<text text-anchor="middle" x="523.68" y="-981" font-family="Times,serif" font-size="10.00">do: [action_validate_image_header]</text>
</g>
<!-- image_validation&#45;&gt;error -->
<g id="edge21" class="edge">
<title>image_validation&#45;&gt;error</title>
<path fill="none" stroke="#555555" d="M792.01,-978.31C894.8,-960.6 1078.18,-929 1078.18,-929 1078.18,-929 1154.07,-839.91 1192.6,-794.69"/>
<polygon fill="#555555" stroke="#555555" points="1195.29,-796.93 1199.11,-787.04 1189.96,-792.39 1195.29,-796.93"/>
<text text-anchor="middle" x="955.18" y="-984" font-family="Times,serif" font-size="10.00">on: evt_image_invalid</text>
<text text-anchor="middle" x="955.18" y="-973" font-family="Times,serif" font-size="10.00">do: [action_set_error_invalid_image]</text>
</g>
<!-- image_validation&#45;&gt;installing -->
<g id="edge20" class="edge">
<title>image_validation&#45;&gt;installing</title>
<path fill="none" stroke="#555555" d="M695.3,-971.76C631.47,-930 480.18,-831 480.18,-831 480.18,-831 480.18,-809 480.18,-809 480.18,-809 616.02,-725.71 684.57,-683.67"/>
<polygon fill="#555555" stroke="#555555" points="686.69,-686.48 693.38,-678.27 683.03,-680.51 686.69,-686.48"/>
<text text-anchor="middle" x="523.68" y="-823" font-family="Times,serif" font-size="10.00">on: evt_image_valid</text>
<text text-anchor="middle" x="523.68" y="-812" font-family="Times,serif" font-size="10.00">do: [action_begin_flash_write]</text>
</g>
</g>
</svg>
