<?xml version="1.0" encoding="UTF-8" standalone="no"?>
<!DOCTYPE svg PUBLIC "-//W3C//DTD SVG 1.1//EN"
 "http://www.w3.org/Graphics/SVG/1.1/DTD/svg11.dtd">
<!-- Generated by graphviz version 2.43.0 (0)
 -->
<!-- Title: Substates Pages: 1 -->
<svg width="796pt" height="214pt"
 viewBox="0.00 0.00 795.99 214.00" xmlns="http://www.w3.org/2000/svg" xmlns:xlink="http://www.w3.org/1999/xlink">
<g id="graph0" class="graph" transform="scale(1 1) rotate(0) translate(4 210)">
<title>Substates</title>
<polygon fill="white" stroke="transparent" points="-4,4 -4,-210 791.99,-210 791.99,4 -4,4"/>
<text text-anchor="middle" x="393.99" y="-186" font-family="Arial Bold" font-size="20.00">Substates</text>
<g id="clust1" class="cluster">
<title>cluster_working</title>
<path fill="#f8f8f8" stroke="#dddddd" d="M20,-8C20,-8 611.09,-8 611.09,-8 617.09,-8 623.09,-14 623.09,-20 623.09,-20 623.09,-156 623.09,-156 623.09,-162 617.09,-168 611.09,-168 611.09,-168 20,-168 20,-168 14,-168 8,-162 8,-156 8,-156 8,-20 8,-20 8,-14 14,-8 20,-8"/>
<text text-anchor="middle" x="315.54" y="-148" font-family="Arial Bold" font-size="20.00">working</text>
</g>
<!-- idle -->
<g id="node1" class="node">
<title>idle</title>
<ellipse fill="#f8f8f8" stroke="black" cx="760.04" cy="-38" rx="27.9" ry="27.9"/>
<text text-anchor="middle" x="760.04" y="-34.3" font-family="Times,serif" font-size="14.00">idle</text>
</g>
<!-- preparing -->
<g id="node2" class="node">
<title>preparing</title>
<ellipse fill="#f8f8f8" stroke="black" cx="72.54" cy="-73" rx="56.59" ry="56.59"/>
<text text-anchor="middle" x="72.54" y="-69.3" font-family="Times,serif" font-size="14.00">preparing</text>
</g>
<!-- idle&#45;&gt;preparing -->
<g id="edge1" class="edge">
<title>idle&#45;&gt;preparing</title>
<path fill="none" stroke="#555555" d="M731.91,-38.7C697.37,-39.58 642.09,-41 642.09,-41 642.09,-41 293.09,-50 293.09,-50 293.09,-50 203.79,-59.35 139.1,-66.13"/>
<polygon fill="#555555" stroke="#555555" points="138.53,-62.67 128.95,-67.2 139.26,-69.64 138.53,-62.67"/>
<text text-anchor="middle" x="456.09" y="-50" font-family="Times,serif" font-size="10.00">on: start_work</text>
</g>
<!-- executing -->
<g id="node4" class="node">
<title>executing</title>
<path fill="none" stroke="black" d="M367.09,-113C367.09,-113 305.09,-113 305.09,-113 299.09,-113 293.09,-107 293.09,-101 293.09,-101 293.09,-89 293.09,-89 293.09,-83 299.09,-77 305.09,-77 305.09,-77 367.09,-77 367.09,-77 373.09,-77 379.09,-83 379.09,-89 379.09,-89 379.09,-101 379.09,-101 379.09,-107 373.09,-113 367.09,-113"/>
<text text-anchor="middle" x="336.09" y="-91.3" font-family="Times,serif" font-size="14.00">executing</text>
</g>
<!-- preparing&#45;&gt;executing -->
<g id="edge3" class="edge">
<title>preparing&#45;&gt;executing</title>
<path fill="none" stroke="#555555" d="M129.01,-77.67C174.5,-81.49 238.43,-86.87 282.98,-90.62"/>
<polygon fill="#555555" stroke="#555555" points="282.76,-94.11 293.02,-91.46 283.35,-87.14 282.76,-94.11"/>
<text text-anchor="middle" x="211.09" y="-92" font-family="Times,serif" font-size="10.00">on: preparation_done</text>
</g>
<!-- finalizing -->
<g id="node3" class="node">
<title>finalizing</title>
<path fill="none" stroke="black" d="M603.09,-113C603.09,-113 545.09,-113 545.09,-113 539.09,-113 533.09,-107 533.09,-101 533.09,-101 533.09,-89 533.09,-89 533.09,-83 539.09,-77 545.09,-77 545.09,-77 603.09,-77 603.09,-77 609.09,-77 615.09,-83 615.09,-89 615.09,-89 615.09,-101 615.09,-101 615.09,-107 609.09,-113 603.09,-113"/>
<text text-anchor="middle" x="574.09" y="-91.3" font-family="Times,serif" font-size="14.00">finalizing</text>
</g>
<!-- finalizing&#45;&gt;idle -->
<g id="edge2" class="edge">
<title>finalizing&#45;&gt;idle</title>
<path fill="none" stroke="#555555" d="M615.46,-82.49C647.67,-72.51 692.36,-58.66 723.29,-49.08"/>
<polygon fill="#555555" stroke="#555555" points="724.7,-52.3 733.22,-46 722.63,-45.62 724.7,-52.3"/>
<text text-anchor="middle" x="673.59" y="-76" font-family="Times,serif" font-size="10.00">on: finalized</text>
</g>
<!-- executing&#45;&gt;finalizing -->
<g id="edge4" class="edge">
<title>executing&#45;&gt;finalizing</title>
<path fill="none" stroke="#555555" d="M379.28,-95C419.46,-95 479.96,-95 522.66,-95"/>
<polygon fill="#555555" stroke="#555555" points="522.84,-98.5 532.84,-95 522.84,-91.5 522.84,-98.5"/>
<text text-anchor="middle" x="456.09" y="-98" font-family="Times,serif" font-size="10.00">on: execution_done</text>
</g>
</g>
</svg>
