<?xml version="1.0" encoding="UTF-8" standalone="no"?>
<!DOCTYPE svg PUBLIC "-//W3C//DTD SVG 1.1//EN"
 "http://www.w3.org/Graphics/SVG/1.1/DTD/svg11.dtd">
<!-- Generated by graphviz version 2.43.0 (0)
 -->
<!-- Title: ExampleSubstates Pages: 1 -->
<svg width="1133pt" height="230pt"
 viewBox="0.00 0.00 1132.60 230.00" xmlns="http://www.w3.org/2000/svg" xmlns:xlink="http://www.w3.org/1999/xlink">
<g id="graph0" class="graph" transform="scale(1 1) rotate(0) translate(4 226)">
<title>ExampleSubstates</title>
<polygon fill="white" stroke="transparent" points="-4,4 -4,-226 1128.6,-226 1128.6,4 -4,4"/>
<text text-anchor="middle" x="562.3" y="-202" font-family="Arial Bold" font-size="20.00">ExampleSubstates</text>
<g id="clust1" class="cluster">
<title>cluster_BAZ</title>
<path fill="#f8f8f8" stroke="#dddddd" d="M391,-51C391,-51 913.6,-51 913.6,-51 919.6,-51 925.6,-57 925.6,-63 925.6,-63 925.6,-172 925.6,-172 925.6,-178 919.6,-184 913.6,-184 913.6,-184 391,-184 391,-184 385,-184 379,-178 379,-172 379,-172 379,-63 379,-63 379,-57 385,-51 391,-51"/>
<text text-anchor="middle" x="652.3" y="-164" font-family="Arial Bold" font-size="20.00">BAZ</text>
</g>
<!-- __eph_initial_FOO -->
<g id="node1" class="node">
<title>__eph_initial_FOO</title>
<ellipse fill="#f8f8f8" stroke="black" cx="1.8" cy="-44" rx="1.8" ry="1.8"/>
</g>
<!-- FOO -->
<g id="node2" class="node">
<title>FOO</title>
<path fill="none" stroke="black" d="M100.6,-62C100.6,-62 70.6,-62 70.6,-62 64.6,-62 58.6,-56 58.6,-50 58.6,-50 58.6,-38 58.6,-38 58.6,-32 64.6,-26 70.6,-26 70.6,-26 100.6,-26 100.6,-26 106.6,-26 112.6,-32 112.6,-38 112.6,-38 112.6,-50 112.6,-50 112.6,-56 106.6,-62 100.6,-62"/>
<text text-anchor="middle" x="85.6" y="-40.3" font-family="Times,serif" font-size="14.00">FOO</text>
</g>
<!-- __eph_initial_FOO&#45;&gt;FOO -->
<g id="edge1" class="edge">
<title>__eph_initial_FOO&#45;&gt;FOO</title>
<path fill="none" stroke="#555555" d="M3.72,-44C8.27,-44 28.97,-44 48.29,-44"/>
<polygon fill="#555555" stroke="#555555" points="48.46,-47.5 58.46,-44 48.46,-40.5 48.46,-47.5"/>
</g>
<!-- BAR -->
<g id="node3" class="node">
<title>BAR</title>
<polygon fill="#f8f8f8" stroke="black" points="288.8,-62 245.4,-44 288.8,-26 332.2,-44 288.8,-62"/>
<text text-anchor="middle" x="288.8" y="-40.3" font-family="Times,serif" font-size="14.00">BAR</text>
</g>
<!-- FOO&#45;&gt;BAR -->
<g id="edge2" class="edge">
<title>FOO&#45;&gt;BAR</title>
<path fill="none" stroke="#555555" d="M112.9,-44C143.8,-44 195.83,-44 235.13,-44"/>
<polygon fill="#555555" stroke="#555555" points="235.33,-47.5 245.33,-44 235.33,-40.5 235.33,-47.5"/>
<text text-anchor="middle" x="179.1" y="-58" font-family="Times,serif" font-size="10.00">on: A</text>
<text text-anchor="middle" x="179.1" y="-47" font-family="Times,serif" font-size="10.00">do: [handler_A]</text>
</g>
<!-- THUD -->
<g id="node4" class="node">
<title>THUD</title>
<path fill="none" stroke="black" d="M904.6,-36C904.6,-36 867.6,-36 867.6,-36 861.6,-36 855.6,-30 855.6,-24 855.6,-24 855.6,-12 855.6,-12 855.6,-6 861.6,0 867.6,0 867.6,0 904.6,0 904.6,0 910.6,0 916.6,-6 916.6,-12 916.6,-12 916.6,-24 916.6,-24 916.6,-30 910.6,-36 904.6,-36"/>
<text text-anchor="middle" x="886.1" y="-14.3" font-family="Times,serif" font-size="14.00">THUD</text>
</g>
<!-- BAR&#45;&gt;THUD -->
<g id="edge3" class="edge">
<title>BAR&#45;&gt;THUD</title>
<path fill="none" stroke="#555555" d="M314.28,-36.51C343.3,-27.62 387.8,-14 387.8,-14 387.8,-14 387.8,-14 691.1,-14 691.1,-14 788.32,-16 845.11,-17.18"/>
<polygon fill="#555555" stroke="#555555" points="845.14,-20.68 855.21,-17.38 845.29,-13.68 845.14,-20.68"/>
<text text-anchor="middle" x="485.6" y="-28" font-family="Times,serif" font-size="10.00">on: D</text>
<text text-anchor="middle" x="485.6" y="-17" font-family="Times,serif" font-size="10.00">do: [handler_D]</text>
</g>
<!-- __eph_initial_BAZ__ -->
<g id="node6" class="node">
<title>__eph_initial_BAZ__</title>
<ellipse fill="#f8f8f8" stroke="black" cx="388.8" cy="-104" rx="1.8" ry="1.8"/>
</g>
<!-- BAR&#45;&gt;__eph_initial_BAZ__ -->
<g id="edge5" class="edge">
<title>BAR&#45;&gt;__eph_initial_BAZ__</title>
<path fill="none" stroke="#555555" d="M307.32,-54.73C328.03,-67.4 361.74,-88.05 378.18,-98.11"/>
<polygon fill="#555555" stroke="#555555" points="376.52,-101.2 386.88,-103.44 380.18,-95.23 376.52,-101.2"/>
</g>
<!-- QUX -->
<g id="node5" class="node">
<title>QUX</title>
<ellipse fill="#f8f8f8" stroke="black" cx="1088.1" cy="-62" rx="32.49" ry="32.49"/>
<ellipse fill="none" stroke="black" cx="1088.1" cy="-62" rx="36.49" ry="36.49"/>
<text text-anchor="middle" x="1088.1" y="-58.3" font-family="Times,serif" font-size="14.00">QUX</text>
</g>
<!-- THUD&#45;&gt;QUX -->
<g id="edge4" class="edge">
<title>THUD&#45;&gt;QUX</title>
<path fill="none" stroke="#555555" d="M916.86,-16.96C930.89,-16.48 944.6,-16 944.6,-16 944.6,-16 1024.6,-16 1024.6,-16 1024.6,-16 1036.34,-24.64 1049.65,-34.44"/>
<polygon fill="#555555" stroke="#555555" points="1047.92,-37.51 1058.04,-40.62 1052.07,-31.87 1047.92,-37.51"/>
<text text-anchor="middle" x="984.6" y="-30" font-family="Times,serif" font-size="10.00">on: G</text>
<text text-anchor="middle" x="984.6" y="-19" font-family="Times,serif" font-size="10.00">do: [handler_G]</text>
</g>
<!-- BAZ_I -->
<g id="node8" class="node">
<title>BAZ_I</title>
<path fill="none" stroke="black" d="M503.1,-128C503.1,-128 468.1,-128 468.1,-128 462.1,-128 456.1,-122 456.1,-116 456.1,-116 456.1,-104 456.1,-104 456.1,-98 462.1,-92 468.1,-92 468.1,-92 503.1,-92 503.1,-92 509.1,-92 515.1,-98 515.1,-104 515.1,-104 515.1,-116 515.1,-116 515.1,-122 509.1,-128 503.1,-128"/>
<text text-anchor="middle" x="485.6" y="-106.3" font-family="Times,serif" font-size="14.00">BAZ_I</text>
</g>
<!-- __eph_initial_BAZ__&#45;&gt;BAZ_I -->
<g id="edge7" class="edge">
<title>__eph_initial_BAZ__&#45;&gt;BAZ_I</title>
<path fill="none" stroke="#555555" d="M390.87,-104.07C396.39,-104.42 422.47,-106.07 445.71,-107.54"/>
<polygon fill="#555555" stroke="#555555" points="445.57,-111.04 455.77,-108.18 446.01,-104.05 445.57,-111.04"/>
</g>
<!-- BAZ_F -->
<g id="node7" class="node">
<title>BAZ_F</title>
<path fill="none" stroke="black" d="M905.6,-128C905.6,-128 866.6,-128 866.6,-128 860.6,-128 854.6,-122 854.6,-116 854.6,-116 854.6,-104 854.6,-104 854.6,-98 860.6,-92 866.6,-92 866.6,-92 905.6,-92 905.6,-92 911.6,-92 917.6,-98 917.6,-104 917.6,-104 917.6,-116 917.6,-116 917.6,-122 911.6,-128 905.6,-128"/>
<text text-anchor="middle" x="886.1" y="-106.3" font-family="Times,serif" font-size="14.00">BAZ_F</text>
</g>
<!-- BAZ_F&#45;&gt;QUX -->
<g id="edge6" class="edge">
<title>BAZ_F&#45;&gt;QUX</title>
<path fill="none" stroke="#555555" d="M925.6,-100.76C959,-92.74 1007.36,-81.14 1042.45,-72.71"/>
<polygon fill="#555555" stroke="#555555" points="1043.31,-76.11 1052.21,-70.37 1041.67,-69.3 1043.31,-76.11"/>
<text text-anchor="middle" x="984.6" y="-109" font-family="Times,serif" font-size="10.00">on: F</text>
<text text-anchor="middle" x="984.6" y="-98" font-family="Times,serif" font-size="10.00">do: [handler_F]</text>
</g>
<!-- BAZ_S -->
<g id="node9" class="node">
<title>BAZ_S</title>
<path fill="none" stroke="black" d="M709.6,-132C709.6,-132 670.6,-132 670.6,-132 664.6,-132 658.6,-126 658.6,-120 658.6,-120 658.6,-108 658.6,-108 658.6,-102 664.6,-96 670.6,-96 670.6,-96 709.6,-96 709.6,-96 715.6,-96 721.6,-102 721.6,-108 721.6,-108 721.6,-120 721.6,-120 721.6,-126 715.6,-132 709.6,-132"/>
<text text-anchor="middle" x="690.1" y="-110.3" font-family="Times,serif" font-size="14.00">BAZ_S</text>
</g>
<!-- BAZ_I&#45;&gt;BAZ_S -->
<g id="edge8" class="edge">
<title>BAZ_I&#45;&gt;BAZ_S</title>
<path fill="none" stroke="#555555" d="M515.18,-110.56C549.91,-111.25 608.74,-112.41 648.25,-113.19"/>
<polygon fill="#555555" stroke="#555555" points="648.28,-116.69 658.34,-113.39 648.41,-109.7 648.28,-116.69"/>
<text text-anchor="middle" x="592.1" y="-126" font-family="Times,serif" font-size="10.00">on: C</text>
<text text-anchor="middle" x="592.1" y="-115" font-family="Times,serif" font-size="10.00">do: [handler_C]</text>
</g>
<!-- BAZ_S&#45;&gt;BAZ_F -->
<g id="edge9" class="edge">
<title>BAZ_S&#45;&gt;BAZ_F</title>
<path fill="none" stroke="#555555" d="M721.84,-113.37C754.9,-112.68 807.64,-111.6 844.19,-110.84"/>
<polygon fill="#555555" stroke="#555555" points="844.58,-114.34 854.5,-110.63 844.43,-107.34 844.58,-114.34"/>
<text text-anchor="middle" x="788.1" y="-137" font-family="Times,serif" font-size="10.00">on: E</text>
<text text-anchor="middle" x="788.1" y="-126" font-family="Times,serif" font-size="10.00">do: [handler_E]</text>
<text text-anchor="middle" x="788.1" y="-115" font-family="Times,serif" font-size="10.00">on_entry: F</text>
</g>
</g>
</svg>
