<?xml version="1.0" encoding="UTF-8" standalone="no"?>
<!DOCTYPE svg PUBLIC "-//W3C//DTD SVG 1.1//EN"
 "http://www.w3.org/Graphics/SVG/1.1/DTD/svg11.dtd">
<!-- Generated by graphviz version 2.43.0 (0)
 -->
<!-- Title: Example Pages: 1 -->
<svg width="1366pt" height="264pt"
 viewBox="0.00 0.00 1365.57 264.00" xmlns="http://www.w3.org/2000/svg" xmlns:xlink="http://www.w3.org/1999/xlink">
<g id="graph0" class="graph" transform="scale(1 1) rotate(0) translate(4 260)">
<title>Example</title>
<polygon fill="white" stroke="transparent" points="-4,4 -4,-260 1361.57,-260 1361.57,4 -4,4"/>
<text text-anchor="middle" x="678.78" y="-236" font-family="Arial Bold" font-size="20.00">Example</text>
<g id="clust1" class="cluster">
<title>cluster_BAZ</title>
<path fill="#f8f8f8" stroke="#dddddd" d="M406.1,-82C406.1,-82 1153.57,-82 1153.57,-82 1159.57,-82 1165.57,-88 1165.57,-94 1165.57,-94 1165.57,-206 1165.57,-206 1165.57,-212 1159.57,-218 1153.57,-218 1153.57,-218 406.1,-218 406.1,-218 400.1,-218 394.1,-212 394.1,-206 394.1,-206 394.1,-94 394.1,-94 394.1,-88 400.1,-82 406.1,-82"/>
<text text-anchor="middle" x="779.83" y="-198" font-family="Arial Bold" font-size="20.00">BAZ</text>
</g>
<!-- FOO -->
<g id="node1" class="node">
<title>FOO</title>
<ellipse fill="#f8f8f8" stroke="black" cx="31.85" cy="-66" rx="31.7" ry="31.7"/>
<text text-anchor="middle" x="31.85" y="-62.3" font-family="Times,serif" font-size="14.00">FOO</text>
</g>
<!-- BAR -->
<g id="node2" class="node">
<title>BAR</title>
<polygon fill="#f8f8f8" stroke="black" points="232.89,-84 189.49,-66 232.89,-48 276.3,-66 232.89,-84"/>
<text text-anchor="middle" x="232.89" y="-62.3" font-family="Times,serif" font-size="14.00">BAR</text>
</g>
<!-- FOO&#45;&gt;BAR -->
<g id="edge1" class="edge">
<title>FOO&#45;&gt;BAR</title>
<path fill="none" stroke="#555555" d="M63.95,-66C94.83,-66 142.75,-66 179.51,-66"/>
<polygon fill="#555555" stroke="#555555" points="179.56,-69.5 189.56,-66 179.56,-62.5 179.56,-69.5"/>
<text text-anchor="middle" x="126.69" y="-80" font-family="Times,serif" font-size="10.00">on: A</text>
<text text-anchor="middle" x="126.69" y="-69" font-family="Times,serif" font-size="10.00">do: handler_A</text>
</g>
<!-- THUD -->
<g id="node3" class="node">
<title>THUD</title>
<ellipse fill="#f8f8f8" stroke="black" cx="1112.63" cy="-18" rx="39.79" ry="18"/>
<text text-anchor="middle" x="1112.63" y="-14.3" font-family="Times,serif" font-size="14.00">THUD</text>
</g>
<!-- BAR&#45;&gt;THUD -->
<g id="edge2" class="edge">
<title>BAR&#45;&gt;THUD</title>
<path fill="none" stroke="#555555" d="M261.72,-59.84C315.42,-47.95 428.1,-23 428.1,-23 428.1,-23 428.1,-23 876.73,-23 876.73,-23 993.8,-20.51 1062.64,-19.04"/>
<polygon fill="#555555" stroke="#555555" points="1062.92,-22.54 1072.84,-18.83 1062.77,-15.54 1062.92,-22.54"/>
<text text-anchor="middle" x="645.44" y="-37" font-family="Times,serif" font-size="10.00">on: C</text>
<text text-anchor="middle" x="645.44" y="-26" font-family="Times,serif" font-size="10.00">do: handler_C</text>
</g>
<!-- BAZ -->
<g id="node5" class="node">
<title>BAZ</title>
<polygon fill="#f8f8f8" stroke="black" points="456.1,-152 402.1,-152 402.1,-116 456.1,-116 456.1,-152"/>
<text text-anchor="middle" x="429.1" y="-130.3" font-family="Times,serif" font-size="14.00">BAZ</text>
</g>
<!-- BAR&#45;&gt;BAZ -->
<g id="edge4" class="edge">
<title>BAR&#45;&gt;BAZ</title>
<path fill="none" stroke="#555555" d="M256.93,-74.07C290.46,-85.81 353,-107.71 392.49,-121.53"/>
<polygon fill="#555555" stroke="#555555" points="384.16,-119.19 394.1,-122.86 388.62,-113.79 384.16,-119.19"/>
<text text-anchor="middle" x="339.1" y="-138" font-family="Times,serif" font-size="10.00">on: B</text>
<text text-anchor="middle" x="339.1" y="-127" font-family="Times,serif" font-size="10.00">do: handler_B</text>
<text text-anchor="middle" x="339.1" y="-116" font-family="Times,serif" font-size="10.00">entry: SSE_1</text>
</g>
<!-- QUX -->
<g id="node4" class="node">
<title>QUX</title>
<ellipse fill="#f8f8f8" stroke="black" cx="1321.07" cy="-76" rx="32.49" ry="32.49"/>
<ellipse fill="none" stroke="black" cx="1321.07" cy="-76" rx="36.49" ry="36.49"/>
<text text-anchor="middle" x="1321.07" y="-72.3" font-family="Times,serif" font-size="14.00">QUX</text>
</g>
<!-- THUD&#45;&gt;QUX -->
<g id="edge3" class="edge">
<title>THUD&#45;&gt;QUX</title>
<path fill="none" stroke="#555555" d="M1151.07,-22.94C1193.72,-28.57 1257.57,-37 1257.57,-37 1257.57,-37 1268.21,-43.64 1280.71,-51.44"/>
<polygon fill="#555555" stroke="#555555" points="1279.22,-54.63 1289.55,-56.96 1282.92,-48.69 1279.22,-54.63"/>
<text text-anchor="middle" x="1221.07" y="-51" font-family="Times,serif" font-size="10.00">on: E</text>
<text text-anchor="middle" x="1221.07" y="-40" font-family="Times,serif" font-size="10.00">do: handler_E</text>
</g>
<!-- BAZ_I -->
<g id="node7" class="node">
<title>BAZ_I</title>
<ellipse fill="#f8f8f8" stroke="black" cx="645.44" cy="-142" rx="38.19" ry="38.19"/>
<text text-anchor="middle" x="645.44" y="-138.3" font-family="Times,serif" font-size="14.00">BAZ_I</text>
</g>
<!-- BAZ&#45;&gt;BAZ_I -->
<g id="edge6" class="edge">
<title>BAZ&#45;&gt;BAZ_I</title>
<path fill="none" stroke="#555555" d="M456.38,-134.98C491.26,-136.28 553.46,-138.6 596.73,-140.22"/>
<polygon fill="#555555" stroke="#555555" points="596.63,-143.72 606.75,-140.59 596.89,-136.72 596.63,-143.72"/>
<text text-anchor="middle" x="531.6" y="-153" font-family="Times,serif" font-size="10.00">on: SSE_1</text>
<text text-anchor="middle" x="531.6" y="-142" font-family="Times,serif" font-size="10.00">do: handler_SSE_1</text>
</g>
<!-- BAZ_F -->
<g id="node6" class="node">
<title>BAZ_F</title>
<ellipse fill="#f8f8f8" stroke="black" cx="1112.63" cy="-135" rx="40.9" ry="40.9"/>
<ellipse fill="none" stroke="black" cx="1112.63" cy="-135" rx="44.89" ry="44.89"/>
<text text-anchor="middle" x="1112.63" y="-131.3" font-family="Times,serif" font-size="14.00">BAZ_F</text>
</g>
<!-- BAZ_F&#45;&gt;QUX -->
<g id="edge5" class="edge">
<title>BAZ_F&#45;&gt;QUX</title>
<path fill="none" stroke="#555555" d="M1165.57,-120.16C1199.53,-110.45 1243.43,-97.9 1275.75,-88.67"/>
<polygon fill="#555555" stroke="#555555" points="1277.14,-91.91 1285.8,-85.8 1275.22,-85.18 1277.14,-91.91"/>
<text text-anchor="middle" x="1221.07" y="-128" font-family="Times,serif" font-size="10.00">on: D</text>
<text text-anchor="middle" x="1221.07" y="-117" font-family="Times,serif" font-size="10.00">do: handler_D</text>
</g>
<!-- BAZ_S -->
<g id="node8" class="node">
<title>BAZ_S</title>
<ellipse fill="#f8f8f8" stroke="black" cx="875.73" cy="-144" rx="40.89" ry="18"/>
<text text-anchor="middle" x="875.73" y="-140.3" font-family="Times,serif" font-size="14.00">BAZ_S</text>
</g>
<!-- BAZ_I&#45;&gt;BAZ_S -->
<g id="edge7" class="edge">
<title>BAZ_I&#45;&gt;BAZ_S</title>
<path fill="none" stroke="#555555" d="M683.88,-142.33C722.21,-142.66 782.02,-143.19 824.46,-143.56"/>
<polygon fill="#555555" stroke="#555555" points="824.55,-147.06 834.58,-143.65 824.61,-140.06 824.55,-147.06"/>
<text text-anchor="middle" x="759.29" y="-157" font-family="Times,serif" font-size="10.00">on: SSE_2</text>
<text text-anchor="middle" x="759.29" y="-146" font-family="Times,serif" font-size="10.00">do: handler_SSE_2</text>
</g>
<!-- BAZ_S&#45;&gt;BAZ_F -->
<g id="edge8" class="edge">
<title>BAZ_S&#45;&gt;BAZ_F</title>
<path fill="none" stroke="#555555" d="M916.58,-142.47C955.36,-140.99 1014.56,-138.72 1057.57,-137.07"/>
<polygon fill="#555555" stroke="#555555" points="1057.73,-140.57 1067.58,-136.69 1057.46,-133.57 1057.73,-140.57"/>
<text text-anchor="middle" x="992.18" y="-166" font-family="Times,serif" font-size="10.00">on: SSE_3</text>
<text text-anchor="middle" x="992.18" y="-155" font-family="Times,serif" font-size="10.00">do: handler_SSE_3</text>
<text text-anchor="middle" x="992.18" y="-144" font-family="Times,serif" font-size="10.00">entry: D</text>
</g>
</g>
</svg>
