<?xml version="1.0" encoding="UTF-8" standalone="no"?>
<!DOCTYPE svg PUBLIC "-//W3C//DTD SVG 1.1//EN"
 "http://www.w3.org/Graphics/SVG/1.1/DTD/svg11.dtd">
<!-- Generated by graphviz version 2.43.0 (0)
 -->
<!-- Title: Example Pages: 1 -->
<svg width="1304pt" height="230pt"
 viewBox="0.00 0.00 1304.00 230.00" xmlns="http://www.w3.org/2000/svg" xmlns:xlink="http://www.w3.org/1999/xlink">
<g id="graph0" class="graph" transform="scale(1 1) rotate(0) translate(4 226)">
<title>Example</title>
<polygon fill="white" stroke="transparent" points="-4,4 -4,-226 1300,-226 1300,4 -4,4"/>
<text text-anchor="middle" x="648" y="-202" font-family="Arial Bold" font-size="20.00">Example</text>
<g id="clust1" class="cluster">
<title>cluster_BAZ</title>
<path fill="#f8f8f8" stroke="#dddddd" d="M360,-51C360,-51 1085,-51 1085,-51 1091,-51 1097,-57 1097,-63 1097,-63 1097,-172 1097,-172 1097,-178 1091,-184 1085,-184 1085,-184 360,-184 360,-184 354,-184 348,-178 348,-172 348,-172 348,-63 348,-63 348,-57 354,-51 360,-51"/>
<text text-anchor="middle" x="722.5" y="-164" font-family="Arial Bold" font-size="20.00">BAZ</text>
</g>
<!-- FOO -->
<g id="node1" class="node">
<title>FOO</title>
<ellipse fill="#f8f8f8" stroke="black" cx="1.8" cy="-56" rx="1.8" ry="1.8"/>
</g>
<!-- BAR -->
<g id="node2" class="node">
<title>BAR</title>
<polygon fill="#f8f8f8" stroke="black" points="179.8,-74 136.4,-56 179.8,-38 223.2,-56 179.8,-74"/>
<text text-anchor="middle" x="179.8" y="-52.3" font-family="Times,serif" font-size="14.00">BAR</text>
</g>
<!-- FOO&#45;&gt;BAR -->
<g id="edge1" class="edge">
<title>FOO&#45;&gt;BAR</title>
<path fill="none" stroke="#555555" d="M3.92,-56C13.2,-56 77.93,-56 125.95,-56"/>
<polygon fill="#555555" stroke="#555555" points="126.22,-59.5 136.22,-56 126.22,-52.5 126.22,-59.5"/>
<text text-anchor="middle" x="70.1" y="-70" font-family="Times,serif" font-size="10.00">on: A</text>
<text text-anchor="middle" x="70.1" y="-59" font-family="Times,serif" font-size="10.00">do: [handler_A]</text>
</g>
<!-- THUD -->
<g id="node3" class="node">
<title>THUD</title>
<path fill="none" stroke="black" d="M1076,-36C1076,-36 1039,-36 1039,-36 1033,-36 1027,-30 1027,-24 1027,-24 1027,-12 1027,-12 1027,-6 1033,0 1039,0 1039,0 1076,0 1076,0 1082,0 1088,-6 1088,-12 1088,-12 1088,-24 1088,-24 1088,-30 1082,-36 1076,-36"/>
<text text-anchor="middle" x="1057.5" y="-14.3" font-family="Times,serif" font-size="14.00">THUD</text>
</g>
<!-- BAR&#45;&gt;THUD -->
<g id="edge2" class="edge">
<title>BAR&#45;&gt;THUD</title>
<path fill="none" stroke="#555555" d="M209.2,-49.93C264.66,-38.08 382,-13 382,-13 382,-13 382,-13 837.5,-13 837.5,-13 953.87,-15.66 1016.95,-17.1"/>
<polygon fill="#555555" stroke="#555555" points="1016.89,-20.6 1026.97,-17.33 1017.05,-13.6 1016.89,-20.6"/>
<text text-anchor="middle" x="607.5" y="-27" font-family="Times,serif" font-size="10.00">on: C</text>
<text text-anchor="middle" x="607.5" y="-16" font-family="Times,serif" font-size="10.00">do: [handler_C]</text>
</g>
<!-- BAZ -->
<g id="node5" class="node">
<title>BAZ</title>
<polygon fill="#f8f8f8" stroke="black" points="410,-131 356,-131 356,-95 410,-95 410,-131"/>
<text text-anchor="middle" x="383" y="-109.3" font-family="Times,serif" font-size="14.00">BAZ</text>
</g>
<!-- BAR&#45;&gt;BAZ -->
<g id="edge4" class="edge">
<title>BAR&#45;&gt;BAZ</title>
<path fill="none" stroke="#555555" d="M206.28,-63.22C241.67,-73.24 305.86,-91.43 346.09,-102.83"/>
<polygon fill="#555555" stroke="#555555" points="337.41,-103.21 348,-103.57 339.95,-96.68 337.41,-103.21"/>
<text text-anchor="middle" x="289.5" y="-122" font-family="Times,serif" font-size="10.00">on: B</text>
<text text-anchor="middle" x="289.5" y="-111" font-family="Times,serif" font-size="10.00">do: [handler_B]</text>
<text text-anchor="middle" x="289.5" y="-100" font-family="Times,serif" font-size="10.00">entry: SSE_1</text>
</g>
<!-- QUX -->
<g id="node4" class="node">
<title>QUX</title>
<ellipse fill="#f8f8f8" stroke="black" cx="1259.5" cy="-62" rx="32.49" ry="32.49"/>
<ellipse fill="none" stroke="black" cx="1259.5" cy="-62" rx="36.49" ry="36.49"/>
<text text-anchor="middle" x="1259.5" y="-58.3" font-family="Times,serif" font-size="14.00">QUX</text>
</g>
<!-- THUD&#45;&gt;QUX -->
<g id="edge3" class="edge">
<title>THUD&#45;&gt;QUX</title>
<path fill="none" stroke="#555555" d="M1088.26,-16.96C1102.29,-16.48 1116,-16 1116,-16 1116,-16 1196,-16 1196,-16 1196,-16 1207.74,-24.64 1221.05,-34.44"/>
<polygon fill="#555555" stroke="#555555" points="1219.32,-37.51 1229.44,-40.62 1223.47,-31.87 1219.32,-37.51"/>
<text text-anchor="middle" x="1156" y="-30" font-family="Times,serif" font-size="10.00">on: E</text>
<text text-anchor="middle" x="1156" y="-19" font-family="Times,serif" font-size="10.00">do: [handler_E]</text>
</g>
<!-- BAZ_I -->
<g id="node7" class="node">
<title>BAZ_I</title>
<ellipse fill="#f8f8f8" stroke="black" cx="607.5" cy="-113" rx="1.8" ry="1.8"/>
</g>
<!-- BAZ&#45;&gt;BAZ_I -->
<g id="edge6" class="edge">
<title>BAZ&#45;&gt;BAZ_I</title>
<path fill="none" stroke="#555555" d="M410.4,-113C459.11,-113 561.27,-113 595.24,-113"/>
<polygon fill="#555555" stroke="#555555" points="595.62,-116.5 605.62,-113 595.62,-109.5 595.62,-116.5"/>
<text text-anchor="middle" x="489" y="-127" font-family="Times,serif" font-size="10.00">on: SSE_1</text>
<text text-anchor="middle" x="489" y="-116" font-family="Times,serif" font-size="10.00">do: [handler_SSE_1]</text>
</g>
<!-- BAZ_F -->
<g id="node6" class="node">
<title>BAZ_F</title>
<path fill="none" stroke="black" d="M1077,-128C1077,-128 1038,-128 1038,-128 1032,-128 1026,-122 1026,-116 1026,-116 1026,-104 1026,-104 1026,-98 1032,-92 1038,-92 1038,-92 1077,-92 1077,-92 1083,-92 1089,-98 1089,-104 1089,-104 1089,-116 1089,-116 1089,-122 1083,-128 1077,-128"/>
<text text-anchor="middle" x="1057.5" y="-106.3" font-family="Times,serif" font-size="14.00">BAZ_F</text>
</g>
<!-- BAZ_F&#45;&gt;QUX -->
<g id="edge5" class="edge">
<title>BAZ_F&#45;&gt;QUX</title>
<path fill="none" stroke="#555555" d="M1097,-100.76C1130.4,-92.74 1178.76,-81.14 1213.85,-72.71"/>
<polygon fill="#555555" stroke="#555555" points="1214.71,-76.11 1223.61,-70.37 1213.07,-69.3 1214.71,-76.11"/>
<text text-anchor="middle" x="1156" y="-109" font-family="Times,serif" font-size="10.00">on: D</text>
<text text-anchor="middle" x="1156" y="-98" font-family="Times,serif" font-size="10.00">do: [handler_D]</text>
</g>
<!-- BAZ_S -->
<g id="node8" class="node">
<title>BAZ_S</title>
<path fill="none" stroke="black" d="M856,-131C856,-131 817,-131 817,-131 811,-131 805,-125 805,-119 805,-119 805,-107 805,-107 805,-101 811,-95 817,-95 817,-95 856,-95 856,-95 862,-95 868,-101 868,-107 868,-107 868,-119 868,-119 868,-125 862,-131 856,-131"/>
<text text-anchor="middle" x="836.5" y="-109.3" font-family="Times,serif" font-size="14.00">BAZ_S</text>
</g>
<!-- BAZ_I&#45;&gt;BAZ_S -->
<g id="edge7" class="edge">
<title>BAZ_I&#45;&gt;BAZ_S</title>
<path fill="none" stroke="#555555" d="M609.51,-113C621.27,-113 732.71,-113 794.58,-113"/>
<polygon fill="#555555" stroke="#555555" points="794.79,-116.5 804.79,-113 794.79,-109.5 794.79,-116.5"/>
<text text-anchor="middle" x="726" y="-127" font-family="Times,serif" font-size="10.00">on: SSE_2</text>
<text text-anchor="middle" x="726" y="-116" font-family="Times,serif" font-size="10.00">do: [handler_SSE_2]</text>
</g>
<!-- BAZ_S&#45;&gt;BAZ_F -->
<g id="edge8" class="edge">
<title>BAZ_S&#45;&gt;BAZ_F</title>
<path fill="none" stroke="#555555" d="M868.41,-112.58C906.97,-112.05 973.01,-111.14 1015.69,-110.56"/>
<polygon fill="#555555" stroke="#555555" points="1015.79,-114.06 1025.75,-110.42 1015.7,-107.06 1015.79,-114.06"/>
<text text-anchor="middle" x="947" y="-137" font-family="Times,serif" font-size="10.00">on: SSE_3</text>
<text text-anchor="middle" x="947" y="-126" font-family="Times,serif" font-size="10.00">do: [handler_SSE_3]</text>
<text text-anchor="middle" x="947" y="-115" font-family="Times,serif" font-size="10.00">entry: D</text>
</g>
</g>
</svg>
