<?xml version="1.0" encoding="UTF-8" standalone="no"?>
<!DOCTYPE svg PUBLIC "-//W3C//DTD SVG 1.1//EN"
 "http://www.w3.org/Graphics/SVG/1.1/DTD/svg11.dtd">
<!-- Generated by graphviz version 2.43.0 (0)
 -->
<!-- Title: SimpleShorthand Pages: 1 -->
<svg width="265pt" height="102pt"
 viewBox="0.00 0.00 264.90 101.95" xmlns="http://www.w3.org/2000/svg" xmlns:xlink="http://www.w3.org/1999/xlink">
<g id="graph0" class="graph" transform="scale(1 1) rotate(0) translate(4 97.95)">
<title>SimpleShorthand</title>
<polygon fill="white" stroke="transparent" points="-4,4 -4,-97.95 260.9,-97.95 260.9,4 -4,4"/>
<text text-anchor="middle" x="128.45" y="-73.95" font-family="Arial Bold" font-size="20.00">SimpleShorthand</text>
<!-- idle -->
<g id="node1" class="node">
<title>idle</title>
<ellipse fill="#f8f8f8" stroke="black" cx="27.95" cy="-36" rx="27.9" ry="27.9"/>
<text text-anchor="middle" x="27.95" y="-32.3" font-family="Times,serif" font-size="14.00">idle</text>
</g>
<!-- working -->
<g id="node2" class="node">
<title>working</title>
<path fill="none" stroke="black" d="M244.9,-54C244.9,-54 194.9,-54 194.9,-54 188.9,-54 182.9,-48 182.9,-42 182.9,-42 182.9,-30 182.9,-30 182.9,-24 188.9,-18 194.9,-18 194.9,-18 244.9,-18 244.9,-18 250.9,-18 256.9,-24 256.9,-30 256.9,-30 256.9,-42 256.9,-42 256.9,-48 250.9,-54 244.9,-54"/>
<text text-anchor="middle" x="219.9" y="-32.3" font-family="Times,serif" font-size="14.00">working</text>
</g>
<!-- idle&#45;&gt;working -->
<g id="edge2" class="edge">
<title>idle&#45;&gt;working</title>
<path fill="none" stroke="#555555" d="M56.16,-36C86.41,-36 135.8,-36 172.25,-36"/>
<polygon fill="#555555" stroke="#555555" points="172.63,-39.5 182.63,-36 172.63,-32.5 172.63,-39.5"/>
<text text-anchor="middle" x="119.4" y="-39" font-family="Times,serif" font-size="10.00">on: start_work</text>
</g>
<!-- working&#45;&gt;idle -->
<g id="edge1" class="edge">
<title>working&#45;&gt;idle</title>
<path fill="none" stroke="#555555" d="M187.03,-17.79C171.4,-8.86 155.9,0 155.9,0 155.9,0 82.9,0 82.9,0 82.9,0 71.94,-7.31 59.9,-15.35"/>
<polygon fill="#555555" stroke="#555555" points="57.89,-12.48 51.51,-20.94 61.77,-18.3 57.89,-12.48"/>
<text text-anchor="middle" x="119.4" y="-3" font-family="Times,serif" font-size="10.00">on: end_work</text>
</g>
</g>
</svg>
